<svg xmlns="http://www.w3.org/2000/svg" width="185" height="185" viewBox="0 0 185 185">
  <g id="Group_197" data-name="Group 197" transform="translate(-617 -175)">
    <g id="Polygon_1" data-name="Polygon 1" transform="translate(617 175)" fill="#fff">
      <path d="M 111.2776947021484 174.6960906982422 C 108.4397964477539 174.6963653564453 105.6524124145508 173.8992004394531 103.2168655395508 172.3908081054688 C 99.99524688720703 170.3955688476562 96.28941345214844 169.3409423828125 92.49998474121094 169.3409423828125 C 88.71055603027344 169.3409423828125 85.00472259521484 170.3955688476562 81.78310394287109 172.3908081054688 C 79.3485107421875 173.8986358642578 76.56093597412109 174.6957702636719 73.72179412841797 174.6960601806641 C 70.86722564697266 174.6963500976562 68.07227325439453 173.9062957763672 65.63907623291016 172.4113464355469 C 63.12912750244141 170.8692321777344 61.12546157836914 168.6370086669922 59.84467315673828 165.9559936523438 L 59.74260330200195 165.7422943115234 C 56.41091156005859 158.7681884765625 49.54103088378906 154.3327026367188 41.8138427734375 154.1667022705078 L 41.63531875610352 154.1628723144531 C 39.41986465454102 154.1152801513672 37.29634094238281 153.6107025146484 35.32369995117188 152.6631317138672 C 33.42429351806641 151.750732421875 31.75643539428711 150.4755706787109 30.36641311645508 148.8730163574219 C 28.97638893127441 147.2704620361328 27.94972229003906 145.4391326904297 27.31491279602051 143.4298706054688 C 26.65562629699707 141.3431091308594 26.45619773864746 139.1695861816406 26.7221736907959 136.9696350097656 L 26.79548454284668 136.3630828857422 C 27.71310234069824 128.7735595703125 24.35605430603027 121.3882293701172 18.0344123840332 117.0892562866211 L 17.57005500793457 116.7734909057617 C 15.74762630462646 115.5341567993164 14.24710273742676 113.9643936157227 13.11019802093506 112.1078262329102 C 12.01512622833252 110.3196105957031 11.30741214752197 108.3535842895508 11.00674533843994 106.2643737792969 C 10.70605564117432 104.1751327514648 10.83062648773193 102.0893249511719 11.37698364257812 100.0648727416992 C 11.94422149658203 97.96304321289062 12.94117450714111 96.03385162353516 14.34015083312988 94.33089447021484 L 14.77457904815674 93.80208587646484 C 19.61227035522461 87.91327667236328 20.75891304016113 79.90077972412109 17.76698303222656 72.89144134521484 L 17.49114990234375 72.24513244628906 C 16.62412643432617 70.21394348144531 16.20834159851074 68.07834625244141 16.25524520874023 65.89759063720703 C 16.30043601989746 63.79734802246094 16.76914978027344 61.75725555419922 17.64834022521973 59.83396911621094 C 18.52755546569824 57.91068267822266 19.76367378234863 56.22139739990234 21.3223876953125 54.81306457519531 C 22.94088935852051 53.3507080078125 24.82795906066895 52.26784896850586 26.93122100830078 51.59453964233398 L 27.28667449951172 51.48075485229492 C 34.60574722290039 49.13772964477539 39.92443466186523 42.97106170654297 41.1671028137207 35.38722991943359 L 41.23781585693359 34.95568084716797 C 41.5421257019043 33.09849166870117 42.16831588745117 31.34256362915039 43.09898376464844 29.73663520812988 C 43.99484252929688 28.19075393676758 45.14874649047852 26.8220157623291 46.5286750793457 25.6684684753418 C 49.29812622070312 23.3532772064209 52.79386520385742 22.0782299041748 56.37188720703125 22.0782299041748 C 57.73627090454102 22.0782299041748 59.10486602783203 22.26330184936523 60.43962478637695 22.6283016204834 L 60.47719955444336 22.63858795166016 C 62.2277946472168 23.11730194091797 64.03374481201172 23.36003875732422 65.84522247314453 23.36011123657227 C 71.62677001953125 23.36030197143555 77.15455627441406 20.88963508605957 81.01122283935547 16.58156394958496 L 81.06010437011719 16.52696800231934 C 82.54969787597656 14.86303901672363 84.32933807373047 13.57277774810791 86.34991455078125 12.69168186187744 C 88.29457855224609 11.84370613098145 90.36376953125 11.41372966766357 92.50000762939453 11.41372966766357 C 94.63624572753906 11.41372966766357 96.70543670654297 11.84370613098145 98.65010070800781 12.69168186187744 C 100.670654296875 13.57277774810791 102.4502944946289 14.86303901672363 103.939582824707 16.52663421630859 L 103.9890823364258 16.58189582824707 C 107.8452453613281 20.88941955566406 113.3730087280273 23.36008644104004 119.154670715332 23.36008644104004 C 120.9659576416016 23.36008644104004 122.7719573974609 23.11737251281738 124.5225067138672 22.63865852355957 L 124.5606536865234 22.62822914123535 C 125.895149230957 22.26330184936523 127.2637252807617 22.0782299041748 128.6281280517578 22.0782299041748 C 132.2065124511719 22.0782299041748 135.7023162841797 23.35318183898926 138.4715728759766 25.66820526123047 C 139.8514099121094 26.82170677185059 141.0052490234375 28.19039726257324 141.9010620117188 29.73627662658691 C 142.8316802978516 31.34222984313965 143.4578399658203 33.0982780456543 143.7621917724609 34.95565795898438 L 143.8328704833984 35.38708877563477 C 145.0755767822266 42.97103881835938 150.3942718505859 49.13772964477539 157.7133636474609 51.48075485229492 L 158.0687713623047 51.59453964233398 C 160.1720581054688 52.26784896850586 162.0591430664062 53.3507080078125 163.6776275634766 54.81306457519531 C 165.2363433837891 56.22142028808594 166.4724884033203 57.91070556640625 167.3516693115234 59.83399200439453 C 168.2308959960938 61.75725555419922 168.6995849609375 63.79734802246094 168.7447662353516 65.89759063720703 C 168.7917022705078 68.07834625244141 168.3758850097656 70.21394348144531 167.5089416503906 72.24504089355469 L 167.2329864501953 72.89154052734375 C 164.2411041259766 79.90080261230469 165.3877410888672 87.91327667236328 170.2254638671875 93.80210876464844 L 170.6598815917969 94.33094787597656 C 172.0588684082031 96.03387451171875 173.0558166503906 97.96306610107422 173.6230621337891 100.0648956298828 C 174.1693878173828 102.0893478393555 174.2939605712891 104.1751556396484 173.9932708740234 106.2643966674805 C 173.6925964355469 108.3536071777344 172.9848937988281 110.3196334838867 171.8898162841797 112.1078491210938 C 170.7529144287109 113.9644241333008 169.2523956298828 115.5341796875 167.4299621582031 116.7734909057617 L 166.9656219482422 117.0892562866211 C 160.6439666748047 121.3882522583008 157.2869110107422 128.7735595703125 158.2045135498047 136.3631591796875 L 158.2778167724609 136.9695892333984 C 158.5437927246094 139.1696166992188 158.3443603515625 141.3431396484375 157.6850738525391 143.4298706054688 C 157.0502624511719 145.4391632080078 156.0236053466797 147.2704925537109 154.6335754394531 148.873046875 C 153.2435607910156 150.4755706787109 151.5756683349609 151.7507476806641 149.6763000488281 152.6631622314453 C 147.7036437988281 153.6107330322266 145.5801086425781 154.1152954101562 143.3646545410156 154.1629028320312 L 143.1861724853516 154.1667327880859 C 135.4589385986328 154.3327026367188 128.5890502929688 158.7681884765625 125.257438659668 165.7422485351562 L 125.1553649902344 165.9559020996094 C 123.8749389648438 168.6361999511719 121.8712005615234 170.8680877685547 119.360725402832 172.4103698730469 C 116.9272003173828 173.9054260253906 114.1321258544922 174.69580078125 111.2776947021484 174.6960906982422 Z" stroke="none"/>
      <path d="M 92.49998474121094 13.91374206542969 C 90.70969390869141 13.91374206542969 88.97671508789062 14.27359008789062 87.34916687011719 14.98329162597656 C 85.66021728515625 15.71980285644531 84.17105865478516 16.80006408691406 82.92245483398438 18.19479370117188 L 82.87384796142578 18.24908447265625 C 78.54371643066406 23.08598327636719 72.33705902099609 25.86009216308594 65.84532165527344 25.86009216308594 C 63.81127166748047 25.86009216308594 61.78337860107422 25.58755493164062 59.81877136230469 25.05032348632812 L 59.78018951416016 25.03976440429688 C 58.66008758544922 24.73345947265625 57.51345825195312 24.57818603515625 56.37211608886719 24.5782470703125 C 53.3790283203125 24.578369140625 50.45266723632812 25.64680480957031 48.132080078125 27.58668518066406 C 46.97674560546875 28.55253601074219 46.01109313964844 29.69764709472656 45.26200866699219 30.99024963378906 C 44.48390197753906 32.33287048339844 43.96003723144531 33.80305480957031 43.70489501953125 35.35995483398438 L 43.63418579101562 35.79148864746094 C 42.23887634277344 44.30682373046875 36.26692199707031 51.23092651367188 28.04898071289062 53.86166381835938 L 27.69343566894531 53.97550964355469 C 25.93098449707031 54.53968811035156 24.35137939453125 55.44558715820312 22.99842834472656 56.66802978515625 C 21.69387817382812 57.84672546386719 20.65882873535156 59.26161193847656 19.92202758789062 60.87335205078125 C 19.18524169921875 62.48508453369141 18.79248046875 64.19358825683594 18.75466918945312 65.95134735107422 C 18.71542358398438 67.77435302734375 19.06390380859375 69.56163787841797 19.79032897949219 71.26348114013672 L 20.06632995605469 71.91001129150391 C 23.42568969726562 79.7802734375 22.13819885253906 88.77693176269531 16.70623779296875 95.38911437988281 L 16.27189636230469 95.91782379150391 C 15.099609375 97.34479522705078 14.26480102539062 98.95922088623047 13.79063415527344 100.7162475585938 C 13.3333740234375 102.4106140136719 13.22926330566406 104.1574325561523 13.48124694824219 105.9082412719727 C 13.73321533203125 107.6590347290039 14.32569885253906 109.3056106567383 15.2421875 110.80224609375 C 16.19258117675781 112.354248046875 17.44879150390625 113.6677169799805 18.97572326660156 114.7061157226562 L 19.44024658203125 115.0219802856445 C 26.538330078125 119.8489532470703 30.30769348144531 128.1414031982422 29.27740478515625 136.6633758544922 L 29.20405578613281 137.2696838378906 C 28.98118591308594 139.1131591796875 29.14761352539062 140.9323425292969 29.69874572753906 142.6766967773438 C 30.23004150390625 144.3583221435547 31.090087890625 145.8919372558594 32.25495910644531 147.2348937988281 C 33.41983032226562 148.577880859375 34.81651306152344 149.6460113525391 36.40618896484375 150.4096374511719 C 38.05514526367188 151.2017211914062 39.83256530761719 151.6235656738281 41.68923950195312 151.6634521484375 L 41.86750793457031 151.6672973632812 C 50.5438232421875 151.8536376953125 58.25750732421875 156.8339080810547 61.99858856201172 164.6650085449219 L 62.10047912597656 164.8783569335938 C 63.17290496826172 167.1232147216797 64.84908294677734 168.9913482666016 66.94782257080078 170.2807769775391 C 68.98729705810547 171.5337677001953 71.32979583740234 172.1960601806641 73.72203063964844 172.1960601806641 C 76.09508514404297 172.1960601806641 78.42739868164062 171.5284576416016 80.466796875 170.2654113769531 C 84.08411407470703 168.0250854492188 88.24514007568359 166.8409271240234 92.49998474121094 166.8409271240234 C 96.75482177734375 166.8409271240234 100.9158248901367 168.0250854492188 104.5332183837891 170.2654113769531 C 106.5725631713867 171.5284576416016 108.9048461914062 172.1960601806641 111.2779541015625 172.1960601806641 C 113.6698760986328 172.1960601806641 116.0122985839844 171.53369140625 118.0519790649414 170.2805328369141 C 120.1509552001953 168.9909820556641 121.8271942138672 167.1229248046875 122.8995819091797 164.8781433105469 L 123.0016174316406 164.6645812988281 C 126.7424545288086 156.8339538574219 134.4561462402344 151.8536987304688 143.1329498291016 151.6672668457031 L 143.3109588623047 151.6634826660156 C 145.1674194335938 151.6235961914062 146.94482421875 151.2017517089844 148.5937652587891 150.40966796875 C 150.1834564208984 149.6460266113281 151.5801391601562 148.5779113769531 152.7450103759766 147.2349243164062 C 153.9098815917969 145.8919525146484 154.7699279785156 144.3583526611328 155.3012237548828 142.6767272949219 C 155.8523559570312 140.932373046875 156.0187683105469 139.1131896972656 155.7958679199219 137.2696380615234 L 155.7225799560547 136.6632232666016 C 154.6922912597656 128.1414337158203 158.461669921875 119.849006652832 165.5597381591797 115.0220108032227 L 166.0241088867188 114.7062149047852 C 167.5512237548828 113.6677169799805 168.8074035644531 112.354248046875 169.7578277587891 110.80224609375 C 170.67431640625 109.3056106567383 171.2667999267578 107.6590347290039 171.5187683105469 105.9082412719727 C 171.770751953125 104.1574554443359 171.6666412353516 102.4106140136719 171.2093811035156 100.7162704467773 C 170.7352142333984 98.95924377441406 169.9004058837891 97.34482574462891 168.7281951904297 95.91793060302734 L 168.2937164306641 95.38906097412109 C 162.8618011474609 88.77693176269531 161.5743255615234 79.78029632568359 164.9336853027344 71.9100341796875 L 165.2096099853516 71.26361083984375 C 165.9361114501953 69.56163787841797 166.2845611572266 67.77435302734375 166.2453460693359 65.95134735107422 C 166.2075042724609 64.19358825683594 165.8147430419922 62.48508453369141 165.0779571533203 60.87332153320312 C 164.3411712646484 59.26158905029297 163.3061065673828 57.84672546386719 162.0015563964844 56.66801452636719 C 160.6486358642578 55.44558715820312 159.0690002441406 54.53968811035156 157.3064270019531 53.97544860839844 L 156.9511413574219 53.86172485351562 C 148.7330627441406 51.23089599609375 142.7610778808594 44.30677795410156 141.3657989501953 35.79145812988281 L 141.2950897216797 35.35992431640625 C 141.0399322509766 33.80276489257812 140.5160064697266 32.33238220214844 139.7379302978516 30.98960876464844 C 138.9888763427734 29.69692993164062 138.0233154296875 28.55180358886719 136.8680572509766 27.58602905273438 C 134.5477142333984 25.646240234375 131.6215057373047 24.57806396484375 128.6283721923828 24.5782470703125 C 127.486328125 24.57829284667969 126.3395080566406 24.73358154296875 125.2190551757812 25.03997802734375 L 125.1819763183594 25.05010986328125 C 123.2165832519531 25.58755493164062 121.188720703125 25.86009216308594 119.1546630859375 25.86009216308594 C 112.6629028320312 25.86009216308594 106.4562454223633 23.08598327636719 102.1267166137695 18.24972534179688 L 102.0769271850586 18.19413757324219 C 100.8289260864258 16.80006408691406 99.33976745605469 15.71980285644531 97.65082550048828 14.98329162597656 C 96.02326965332031 14.27359008789062 94.29026794433594 13.91374206542969 92.49998474121094 13.91374206542969 M 92.49999237060547 8.913742065429688 C 97.37696075439453 8.913742065429688 102.2539291381836 10.89555358886719 105.80224609375 14.85916137695312 L 105.8514251708984 14.91409301757812 C 110.3638000488281 19.95455932617188 117.3374633789062 22.01173400878906 123.8630828857422 20.22718811035156 L 123.9009246826172 20.21684265136719 C 134.1229248046875 17.42164611816406 144.5156402587891 24.09356689453125 146.2292785644531 34.55140686035156 L 146.2999877929688 34.98292541503906 C 147.3845825195312 41.60206604003906 152.0875244140625 47.05479431152344 158.4755554199219 49.09977722167969 L 158.8309783935547 49.21356201171875 C 168.849853515625 52.42082214355469 173.9380035400391 63.55135345458984 169.8082122802734 73.22650909423828 L 169.5323028564453 73.87293243408203 C 166.9178161621094 79.99803161621094 167.9297180175781 87.06919097900391 172.1571960449219 92.21519470214844 L 172.5916137695312 92.74398040771484 C 179.2552185058594 100.8554534912109 177.5163726806641 112.937614440918 168.8357696533203 118.8407745361328 L 168.3713989257812 119.1565628051758 C 162.8497467041016 122.9115371704102 159.8849487304688 129.4338684082031 160.6864318847656 136.0630798339844 L 160.7597503662109 136.6695861816406 C 162.02685546875 147.150146484375 153.9727478027344 156.4356079101562 143.4183197021484 156.6623229980469 L 143.2398223876953 156.6661376953125 C 136.5012969970703 156.8108978271484 130.4186096191406 160.7381134033203 127.5132446289062 166.8198699951172 L 127.4111175537109 167.0336456298828 C 122.8297424316406 176.6236877441406 110.9361877441406 180.1122436523438 101.9005584716797 174.5161895751953 C 96.14106750488281 170.9491882324219 88.85890197753906 170.9491882324219 83.09942626953125 174.5161895751953 C 74.06378936767578 180.1122131347656 62.17021942138672 176.6236877441406 57.58885192871094 167.0336456298828 L 57.48674774169922 166.8198547363281 C 54.58137512207031 160.7381134033203 48.49867248535156 156.8108825683594 41.7601318359375 156.6661376953125 L 41.58163452148438 156.6622924804688 C 31.0272216796875 156.4355926513672 22.97311401367188 147.1500854492188 24.24021911621094 136.6695556640625 L 24.31355285644531 136.0630798339844 C 25.11503601074219 129.4338684082031 22.1502685546875 122.911506652832 16.62858581542969 119.1565322875977 L 16.16421508789062 118.8407745361328 C 7.483642578125 112.937614440918 5.744796752929688 100.8554306030273 12.40840148925781 92.74395751953125 L 12.84280395507812 92.21519470214844 C 17.07026672363281 87.06919097900391 18.08219909667969 79.99803161621094 15.46771240234375 73.87287902832031 L 15.19180297851562 73.22650909423828 C 11.06198120117188 63.55135345458984 16.15016174316406 52.42082214355469 26.16900634765625 49.21356201171875 L 26.52442932128906 49.09977722167969 C 32.91246032714844 47.05482482910156 37.61540222167969 41.60206604003906 38.70001220703125 34.98295593261719 L 38.77072143554688 34.55142211914062 C 40.48434448242188 24.09361267089844 50.87702941894531 17.42160034179688 61.09906005859375 20.21684265136719 L 61.13690185546875 20.22718811035156 C 67.66251373291016 22.01171875 74.63619232177734 19.95458984375 79.1485595703125 14.91409301757812 L 79.19774627685547 14.85916137695312 C 82.74606323242188 10.89555358886719 87.62302398681641 8.913742065429688 92.49999237060547 8.913742065429688 Z" stroke="none" fill="#fffaad"/>
    </g>
    <g id="b" transform="translate(666.26 223.364)">
      <path id="Path_941" data-name="Path 941" d="M19.029,8.308C10.066,10.434,8,14.432,8,14.432V73.89s3.835-7.432,23.783-7.432c12.546,0,18.848,2.913,28.718,4.132l10.45.491c2.586-.045,5.411-.223,8.592-.565a4.7,4.7,0,0,0,4.266-4.608V16.1a4.679,4.679,0,0,0-5.232-4.563C55.284,13.808,50.423,7,31.783,7h-.832Z" transform="translate(3.827 2.856)" fill="#f9eab0"/>
      <circle id="Ellipse_14" data-name="Ellipse 14" cx="19.577" cy="19.577" r="19.577" transform="translate(27.408 21.927)" fill="#24ae5f"/>
      <path id="Path_942" data-name="Path 942" d="M30.459,39.837a1.483,1.483,0,0,1-1.051-.436l-2.973-2.973a1.486,1.486,0,0,1,2.1-2.1l1.8,1.8L41.19,22.559a1.486,1.486,0,0,1,2.322,1.857L31.62,39.28a1.491,1.491,0,0,1-1.079.556h-.083Z" transform="translate(12.583 10.153)" fill="#ecf0f1"/>
      <path id="Path_943" data-name="Path 943" d="M10.919,7.64V82.5a1.487,1.487,0,0,1-1.486,1.486H3.486A1.487,1.487,0,0,1,2,82.5V7.64" transform="translate(0.909 3.167)" fill="#a65a47"/>
      <ellipse id="Ellipse_15" data-name="Ellipse 15" cx="7.048" cy="6.656" rx="7.048" ry="6.656" transform="translate(0 0)" fill="#9fc9d3"/>
      <g id="Group_196" data-name="Group 196" transform="translate(20.744 0.15)">
        <path id="Path_944" data-name="Path 944" d="M50.631,44.776,52.2,48.1l3.515.532A1.409,1.409,0,0,1,56.459,51l-2.545,2.583.6,3.648A1.348,1.348,0,0,1,52.577,58.7l-3.145-1.723L46.286,58.7a1.348,1.348,0,0,1-1.938-1.467l.6-3.648L42.4,51a1.409,1.409,0,0,1,.74-2.375l3.515-.532,1.573-3.319a1.313,1.313,0,0,1,2.4,0Z" transform="translate(-0.378 20.704)" fill="#f0c419"/>
        <path id="Path_946" data-name="Path 946" d="M47.635,44.507l1.027,2.167,2.3.347a.92.92,0,0,1,.483,1.551l-1.662,1.687.392,2.382a.88.88,0,0,1-1.266.958l-2.054-1.125L44.8,53.6a.88.88,0,0,1-1.266-.958l.392-2.382-1.662-1.687a.92.92,0,0,1,.483-1.551l2.3-.347,1.027-2.167a.857.857,0,0,1,1.565,0Z" transform="translate(11.929 -44)" fill="#f0c419"/>
        <path id="Path_945" data-name="Path 945" d="M22.631,2.776,24.2,6.1l3.515.532A1.409,1.409,0,0,1,28.459,9l-2.545,2.583.6,3.648A1.348,1.348,0,0,1,24.577,16.7l-3.145-1.723L18.286,16.7a1.348,1.348,0,0,1-1.938-1.467l.6-3.648L14.4,9a1.409,1.409,0,0,1,.74-2.375L18.659,6.1l1.573-3.319a1.313,1.313,0,0,1,2.4,0Z" transform="translate(-13.998 0.274)" fill="#f0c419"/>
      </g>
    </g>
  </g>
</svg>
